<svg xmlns="http://www.w3.org/2000/svg" viewBox="0 0 1440 320" width="100%" height="100%" preserveAspectRatio="none">
  <defs>
    <linearGradient id="skyGradient" x1="0%" y1="0%" x2="0%" y2="100%">
      <stop offset="0%" style="stop-color:#87CEEB;stop-opacity:1" />
      <stop offset="100%" style="stop-color:#0084A1;stop-opacity:1" />
    </linearGradient>
    <clipPath id="roundedClip">
      <rect x="0" y="0" width="1440" height="320" rx="50%" ry="50%" />
    </clipPath>
    <filter id="blurEdges" x="-10%" y="-10%" width="120%" height="120%">
      <feGaussianBlur stdDeviation="2" />
    </filter>
  </defs>

  <!-- Background with blur effect -->
  <g filter="url(#blurEdges)">
    <g clip-path="url(#roundedClip)">
      <rect x="0" y="0" width="1440" height="320" fill="url(#skyGradient)" />
        <!-- Foreground wave design with rounded corners -->
      <path fill="#0084A1" d="M0,192L80,181.3C160,171,320,149,480,160C640,171,800,213,960,213.3C1120,213,1280,171,1360,149.3L1440,128L1440,320L1360,320C1280,320,1120,320,960,320C800,320,640,320,480,320C320,320,160,320,80,320L0,320Z"></path>
      <path fill="#F4E3C7" d="M0,320L80,300C160,280,320,240,480,224C640,208,800,224,960,240C1120,256,1280,272,1360,288L1440,304L1440,320L1360,320C1280,320,1120,320,960,320C800,320,640,320,480,320C320,320,160,320,80,320L0,320Z"></path>
    </g>
  </g>


</svg>
